<svg id="visual" viewBox="0 0 1920 1080" width="1920" height="1080" xmlns="http://www.w3.org/2000/svg" xmlns:xlink="http://www.w3.org/1999/xlink" version="1.1"><rect x="0" y="0" width="1920" height="1080" fill="#38220f"></rect><path d="M0 329L45.7 333.7C91.3 338.3 182.7 347.7 274.2 362.5C365.7 377.3 457.3 397.7 548.8 412C640.3 426.3 731.7 434.7 823 440.3C914.3 446 1005.7 449 1097 444C1188.3 439 1279.7 426 1371.2 408.5C1462.7 391 1554.3 369 1645.8 368.3C1737.3 367.7 1828.7 388.3 1874.3 398.7L1920 409L1920 0L1874.3 0C1828.7 0 1737.3 0 1645.8 0C1554.3 0 1462.7 0 1371.2 0C1279.7 0 1188.3 0 1097 0C1005.7 0 914.3 0 823 0C731.7 0 640.3 0 548.8 0C457.3 0 365.7 0 274.2 0C182.7 0 91.3 0 45.7 0L0 0Z" fill="#634832" stroke-linecap="round" stroke-linejoin="miter"></path></svg>